<svg width="28" height="28" viewBox="0 0 28 28" fill="none" xmlns="http://www.w3.org/2000/svg">
<path d="M14 19.8332V19.8332C14 17.1916 14 15.8708 13.5425 14.8385C13.0059 13.6282 12.0384 12.6606 10.828 12.1241C9.79574 11.6665 8.47494 11.6665 5.83333 11.6665H3.5" stroke="#33384B" stroke-width="2" stroke-linecap="round" stroke-linejoin="round"/>
<path d="M15.1667 7V7C15.1667 5.067 16.7337 3.5 18.6667 3.5H21" stroke="#33384B" stroke-width="2" stroke-linecap="round" stroke-linejoin="round"/>
<path d="M7 8.16667V5.83333C7 4.54467 8.04467 3.5 9.33333 3.5V3.5C10.622 3.5 11.6667 4.54467 11.6667 5.83333V5.83333C11.6667 6.47767 12.189 7 12.8333 7H17.5C17.9643 7 18.1964 7 18.3923 7.01445C21.0285 7.2089 23.1244 9.30488 23.3189 11.941C23.3333 12.1369 23.3333 12.369 23.3333 12.8333V13.6111C23.3333 13.8174 23.3333 13.9206 23.3319 14.0079C23.2377 19.7623 18.5956 24.4044 12.8412 24.4986C12.7539 24.5 12.6508 24.5 12.4444 24.5V24.5C12.3413 24.5 12.2897 24.5 12.2461 24.4993C9.36887 24.4522 7.0478 22.1311 7.00071 19.2539C7 19.2103 7 19.1587 7 19.0556V15.1667" stroke="#33384B" stroke-width="2" stroke-linecap="round" stroke-linejoin="round"/>
<path d="M8.16669 11.6665H14C16.5773 11.6665 18.6667 13.7558 18.6667 16.3332V16.3332" stroke="#33384B" stroke-width="2" stroke-linecap="round" stroke-linejoin="round"/>
</svg>
