<svg width="28" height="28" viewBox="0 0 28 28" fill="none" xmlns="http://www.w3.org/2000/svg">
<path d="M11.7081 5.87463L12.0858 6.25229C12.1124 6.27884 12.1256 6.29212 12.137 6.30321C13.173 7.31484 14.827 7.31484 15.863 6.30321C15.8744 6.29212 15.8877 6.27885 15.9142 6.25231L15.9142 6.25229L16.2919 5.87463C17.0654 5.10108 18.1146 4.6665 19.2086 4.6665C21.4866 4.6665 23.3334 6.51323 23.3334 8.79129V11.1833C23.3334 12.2397 22.9137 13.2528 22.1667 13.9998C21.4197 14.7468 21 15.76 21 16.8164V22.3367C21 23.5314 20.0316 24.4998 18.8369 24.4998C18.0176 24.4998 17.2686 24.0369 16.9022 23.3041L15.5653 20.6303L15.5653 20.6303C15.2474 19.9945 15.0884 19.6766 14.9197 19.5159C14.4047 19.0253 13.5953 19.0253 13.0803 19.5159C12.9116 19.6766 12.7527 19.9945 12.4348 20.6303L11.0979 23.3041C10.7315 24.0369 9.98247 24.4998 9.16314 24.4998C7.96848 24.4998 7.00002 23.5314 7.00002 22.3367V16.8164C7.00002 15.76 6.58036 14.7468 5.83335 13.9998C5.08635 13.2528 4.66669 12.2397 4.66669 11.1833V8.79129C4.66669 6.51324 6.51342 4.6665 8.79148 4.6665C9.88544 4.6665 10.9346 5.10108 11.7081 5.87463Z" stroke="#33384B" stroke-width="2" stroke-linecap="round" stroke-linejoin="round"/>
<circle cx="14" cy="12.8332" r="1.16667" fill="#33384B"/>
<circle cx="9.33335" cy="10.5002" r="1.16667" fill="#33384B"/>
<circle cx="18.6667" cy="10.5002" r="1.16667" fill="#33384B"/>
</svg>
