<svg width="28" height="28" viewBox="0 0 28 28" fill="none" xmlns="http://www.w3.org/2000/svg">
<path d="M24.5 12.621V9.33317C24.5 8.71394 24.5 8.40433 24.4658 8.1444C24.2295 6.34947 22.8171 4.93703 21.0221 4.70072C20.7622 4.6665 20.4526 4.6665 19.8334 4.6665C19.2141 4.6665 18.9045 4.6665 18.6446 4.70072C16.8496 4.93703 15.4372 6.34947 15.2009 8.1444C15.1667 8.40433 15.1667 8.71394 15.1667 9.33316V13.9998C15.1667 15.9328 13.5997 17.4998 11.6667 17.4998C9.73369 17.4998 8.16669 19.0668 8.16669 20.9998C8.16669 22.9328 9.73369 24.4998 11.6667 24.4998H12.6212C13.7469 24.4998 14.3097 24.4998 14.7841 24.4574C19.924 23.9974 23.9976 19.9239 24.4576 14.7839C24.5 14.3095 24.5 13.7467 24.5 12.621Z" stroke="#33384B" stroke-width="2" stroke-linecap="round" stroke-linejoin="round"/>
<path d="M9.33331 3.5V3.5C9.33331 5.20744 9.33331 6.06116 9.58969 6.74233C9.99544 7.82039 10.8463 8.6712 11.9243 9.07696C12.6055 9.33333 13.4592 9.33333 15.1666 9.33333V9.33333" stroke="#33384B" stroke-width="2" stroke-linecap="round" stroke-linejoin="round"/>
<path d="M3.5 24.5V24.5C3.5 22.567 5.067 21 7 21H8.16667" stroke="#33384B" stroke-width="2" stroke-linecap="round" stroke-linejoin="round"/>
</svg>
