<svg width="28" height="28" viewBox="0 0 28 28" fill="none" xmlns="http://www.w3.org/2000/svg">
<path d="M16.3333 13.3539V9.91683C16.3333 7.66167 18.1615 5.8335 20.4166 5.8335H20.8455C22.8638 5.8335 24.5 7.46965 24.5 9.48794C24.5 10.1503 24.32 10.8002 23.9792 11.3681L21.868 14.8869C21.3295 15.7844 20.3596 16.3335 19.3129 16.3335C17.6673 16.3335 16.3333 14.9995 16.3333 13.3539Z" stroke="#33384B" stroke-width="2" stroke-linecap="round" stroke-linejoin="round"/>
<path d="M12.6136 19.6257L9.01689 21.681C8.45973 21.9994 7.82913 22.1668 7.18742 22.1668C5.15092 22.1668 3.5 20.5159 3.5 18.4794V12.2502C3.5 11.2437 3.5 10.7405 3.56773 10.3196C3.93324 8.04791 5.71441 6.26674 7.98609 5.90122C8.407 5.8335 8.91023 5.8335 9.91667 5.8335C10.9231 5.8335 11.4263 5.8335 11.8472 5.90122C14.1189 6.26674 15.9001 8.04791 16.2656 10.3196C16.3333 10.7405 16.3333 11.2437 16.3333 12.2502V13.216C16.3333 14.3691 16.3333 14.9457 16.2249 15.4753C15.9918 16.6131 15.3937 17.6437 14.5214 18.4106C14.1154 18.7675 13.6148 19.0536 12.6136 19.6257L12.6136 19.6257Z" stroke="#33384B" stroke-width="2" stroke-linecap="round" stroke-linejoin="round"/>
<path d="M16.3333 24.5002L16.3333 17.5002C16.3333 15.5672 14.7663 14.0002 12.8333 14.0002V14.0002C10.9003 14.0002 9.33331 12.4332 9.33331 10.5002V9.3335" stroke="#33384B" stroke-width="2" stroke-linecap="round" stroke-linejoin="round"/>
<path d="M16.3333 24.5L16.3333 15.1667C16.3333 12.5893 18.4227 10.5 21 10.5V10.5" stroke="#33384B" stroke-width="2" stroke-linecap="round" stroke-linejoin="round"/>
</svg>
