<svg width="28" height="28" viewBox="0 0 28 28" fill="none" xmlns="http://www.w3.org/2000/svg">
<path d="M14 14V14C16.6416 14 17.9624 14 18.9946 14.4575C20.205 14.9941 21.1726 15.9616 21.7091 17.172C22.1667 18.2043 22.1667 19.5251 22.1667 22.1667V24.5" stroke="#33384B" stroke-width="2" stroke-linecap="round" stroke-linejoin="round"/>
<path d="M14 14H15.1667C16.7163 14 17.4911 14 18.1292 13.8402C20.0382 13.362 21.5287 11.8715 22.0068 9.96256C22.1667 9.32447 22.1667 8.54965 22.1667 7V7" stroke="#33384B" stroke-width="2" stroke-linecap="round" stroke-linejoin="round"/>
<path d="M13.5333 15.6917L14.8314 16.6652C16.4059 17.8461 16.9921 19.9365 16.2611 21.7639C15.6001 23.4164 13.9987 24.5 12.2188 24.5C7.40506 24.5 3.5 20.5977 3.5 15.7839V12.1406C3.5 7.36853 7.36853 3.5 12.1406 3.5C13.9573 3.5 15.58 4.63653 16.2008 6.34387L16.3094 6.64242C17.0165 8.58711 16.3682 10.7655 14.7128 12.0071L13.5333 12.8917C13.0927 13.2222 12.8333 13.7408 12.8333 14.2917C12.8333 14.8425 13.0927 15.3612 13.5333 15.6917Z" stroke="#33384B" stroke-width="2" stroke-linecap="round" stroke-linejoin="round"/>
</svg>
