<svg width="28" height="28" viewBox="0 0 28 28" fill="none" xmlns="http://www.w3.org/2000/svg">
<path d="M7 10.5V7C7 6.84525 7 6.76788 7.00257 6.70247C7.07086 4.96429 8.46429 3.57086 10.2025 3.50257C10.2679 3.5 10.3453 3.5 10.5 3.5C10.6547 3.5 10.7321 3.5 10.7975 3.50257C12.5357 3.57086 13.9291 4.96429 13.9974 6.70247C14 6.76788 14 6.84525 14 7V21C14 21.1547 14 21.2321 13.9974 21.2975C13.9291 23.0357 12.5357 24.4291 10.7975 24.4974C10.7321 24.5 10.6547 24.5 10.5 24.5C10.3453 24.5 10.2679 24.5 10.2025 24.4974C8.46429 24.4291 7.07086 23.0357 7.00257 21.2975C7 21.2321 7 21.1547 7 21V17.5C6.84525 17.5 6.76788 17.5 6.70247 17.4974C4.96429 17.4291 3.57086 16.0357 3.50257 14.2975C3.5 14.2321 3.5 14.1547 3.5 14C3.5 13.8453 3.5 13.7679 3.50257 13.7025C3.57086 11.9643 4.96429 10.5709 6.70247 10.5026C6.76788 10.5 6.84525 10.5 7 10.5Z" stroke="#33384B" stroke-width="2" stroke-linecap="round" stroke-linejoin="round"/>
<path d="M14 4.6665V5.83317C14 5.93221 14 5.98173 13.9984 6.02359C13.9546 7.18759 13.0211 8.12111 11.8571 8.16493C11.8152 8.1665 11.7657 8.1665 11.6667 8.1665V8.1665" stroke="#33384B" stroke-width="2" stroke-linecap="round" stroke-linejoin="round"/>
<path d="M7 17.5H8.16667C8.26571 17.5 8.31523 17.5 8.35709 17.5016C9.52108 17.5454 10.4546 18.4789 10.4984 19.6429C10.5 19.6848 10.5 19.7343 10.5 19.8333V19.8333" stroke="#33384B" stroke-width="2" stroke-linecap="round" stroke-linejoin="round"/>
<path d="M7 10.5V10.5C7 10.599 7 10.6486 7.00158 10.6904C7.04539 11.8544 7.97892 12.7879 9.14291 12.8318C9.18477 12.8333 9.23429 12.8333 9.33333 12.8333V12.8333" stroke="#33384B" stroke-width="2" stroke-linecap="round" stroke-linejoin="round"/>
<path d="M21 10.5V7C21 6.84525 21 6.76788 20.9974 6.70247C20.9291 4.96429 19.5357 3.57086 17.7975 3.50257C17.7321 3.5 17.6547 3.5 17.5 3.5C17.3453 3.5 17.2679 3.5 17.2025 3.50257C15.4643 3.57086 14.0709 4.96429 14.0026 6.70247C14 6.76788 14 6.84525 14 7V21C14 21.1547 14 21.2321 14.0026 21.2975C14.0709 23.0357 15.4643 24.4291 17.2025 24.4974C17.2679 24.5 17.3453 24.5 17.5 24.5C17.6547 24.5 17.7321 24.5 17.7975 24.4974C19.5357 24.4291 20.9291 23.0357 20.9974 21.2975C21 21.2321 21 21.1547 21 21V17.5C21.1547 17.5 21.2321 17.5 21.2975 17.4974C23.0357 17.4291 24.4291 16.0357 24.4974 14.2975C24.5 14.2321 24.5 14.1547 24.5 14C24.5 13.8453 24.5 13.7679 24.4974 13.7025C24.4291 11.9643 23.0357 10.5709 21.2975 10.5026C21.2321 10.5 21.1547 10.5 21 10.5Z" stroke="#33384B" stroke-width="2" stroke-linecap="round" stroke-linejoin="round"/>
<path d="M14 4.6665V5.83317C14 5.93221 14 5.98173 14.0016 6.02359C14.0454 7.18759 14.9789 8.12111 16.1429 8.16493C16.1848 8.1665 16.2343 8.1665 16.3333 8.1665V8.1665" stroke="#33384B" stroke-width="2" stroke-linecap="round" stroke-linejoin="round"/>
<path d="M21 17.5H19.8333C19.7343 17.5 19.6848 17.5 19.6429 17.5016C18.4789 17.5454 17.5454 18.4789 17.5016 19.6429C17.5 19.6848 17.5 19.7343 17.5 19.8333V19.8333" stroke="#33384B" stroke-width="2" stroke-linecap="round" stroke-linejoin="round"/>
<path d="M21 9.3335V10.5002C21 10.5992 21 10.6487 20.9984 10.6906C20.9546 11.8546 20.0211 12.7881 18.8571 12.8319C18.8152 12.8335 18.7657 12.8335 18.6667 12.8335V12.8335" stroke="#33384B" stroke-width="2" stroke-linecap="round" stroke-linejoin="round"/>
</svg>
