<svg width="28" height="28" viewBox="0 0 28 28" fill="none" xmlns="http://www.w3.org/2000/svg">
<path d="M11.6667 12.8335V12.8335C11.6667 13.6083 11.6667 13.9957 11.7466 14.3148C11.9857 15.2692 12.7309 16.0145 13.6854 16.2536C14.0045 16.3335 14.3919 16.3335 15.1667 16.3335V16.3335C15.9415 16.3335 16.3289 16.3335 16.648 16.2536C17.6024 16.0145 18.3477 15.2692 18.5868 14.3148C18.6667 13.9957 18.6667 13.6083 18.6667 12.8335V12.8335" stroke="#33384B" stroke-width="2" stroke-linecap="round" stroke-linejoin="round"/>
<path d="M15.1667 25.6667L15.1667 7" stroke="#33384B" stroke-width="2" stroke-linecap="round" stroke-linejoin="round"/>
<path d="M11.6667 9.3335V9.3335C13.5997 9.3335 15.1667 10.9005 15.1667 12.8335V14.0002" stroke="#33384B" stroke-width="2" stroke-linecap="round" stroke-linejoin="round"/>
<path d="M19.8713 25.6668V20.6911C19.8713 19.1944 20.4993 17.7663 21.6023 16.7545V16.7545C22.7054 15.7428 23.3334 14.3147 23.3334 12.818V10.5002C23.3334 5.98984 19.677 2.3335 15.1667 2.3335V2.3335C10.6564 2.3335 7.00002 5.98984 7.00002 10.5002V11.0025C7.00002 11.4394 6.89831 11.8703 6.70294 12.261L5.3116 15.0437C5.01531 15.6363 5.44622 16.3335 6.10877 16.3335V16.3335C6.60099 16.3335 7.00002 16.7325 7.00002 17.2248V18.0835C7.00002 19.05 7.78352 19.8335 8.75002 19.8335V19.8335C9.71652 19.8335 10.5 20.617 10.5 21.5835V25.6668" stroke="#33384B" stroke-width="2" stroke-linecap="round" stroke-linejoin="round"/>
</svg>
