<svg width="28" height="28" viewBox="0 0 28 28" fill="none" xmlns="http://www.w3.org/2000/svg">
<path d="M11.6667 9.625V19.25C11.6667 19.3274 11.6667 19.3661 11.6662 19.3988C11.6308 21.5567 9.89004 23.2975 7.73213 23.3328C7.69941 23.3333 7.66073 23.3333 7.58335 23.3333C7.50598 23.3333 7.4673 23.3333 7.43458 23.3328C5.27667 23.2975 3.53587 21.5567 3.50056 19.3988C3.50002 19.3661 3.50002 19.3274 3.50002 19.25V13.7C3.50002 12.5267 3.50002 11.94 3.6538 11.4015C3.79001 10.9246 4.01372 10.4772 4.31353 10.0821C4.65203 9.636 5.12136 9.284 6.06002 8.58L7.46669 7.525C7.92107 7.18422 8.47372 7 9.04169 7C10.4914 7 11.6667 8.17525 11.6667 9.625Z" stroke="#33384B" stroke-width="2" stroke-linecap="round" stroke-linejoin="round"/>
<path d="M16.3333 10.2998V19.25C16.3333 19.3274 16.3333 19.3661 16.3338 19.3988C16.3692 21.5567 18.11 23.2975 20.2679 23.3328C20.3006 23.3333 20.3393 23.3333 20.4166 23.3333C20.494 23.3333 20.5327 23.3333 20.5654 23.3328C22.7233 23.2975 24.4641 21.5567 24.4994 19.3988C24.5 19.3661 24.5 19.3274 24.5 19.25V12.9749C24.5 12.1702 24.5 11.7679 24.425 11.3862C24.3225 10.8642 24.117 10.3679 23.8204 9.92637C23.6035 9.60348 23.319 9.31899 22.75 8.75L21.9665 7.9665C21.3476 7.34766 20.5083 7 19.6331 7C17.8107 7 16.3333 8.47738 16.3333 10.2998Z" stroke="#33384B" stroke-width="2" stroke-linecap="round" stroke-linejoin="round"/>
<path d="M14 2.3335V9.3335C14 11.2665 15.567 12.8335 17.5 12.8335V12.8335C19.433 12.8335 21 14.4005 21 16.3335V16.9168" stroke="#33384B" stroke-width="2" stroke-linecap="round" stroke-linejoin="round"/>
<path d="M14 2.3335V9.3335C14 11.2665 12.433 12.8335 10.5 12.8335V12.8335C8.567 12.8335 7 14.4005 7 16.3335V16.9168" stroke="#33384B" stroke-width="2" stroke-linecap="round" stroke-linejoin="round"/>
</svg>
